<?xml version="1.0" encoding="UTF-8" standalone="no"?>
<svg
   xmlns:dc="http://purl.org/dc/elements/1.1/"
   xmlns:cc="http://creativecommons.org/ns#"
   xmlns:rdf="http://www.w3.org/1999/02/22-rdf-syntax-ns#"
   xmlns:svg="http://www.w3.org/2000/svg"
   xmlns="http://www.w3.org/2000/svg"
   version="1.1"
   viewBox="0 0 32 32"
   height="32"
   width="32">
  <title>Configuration Mania Icon</title>
  <metadata>
    <rdf:RDF>
      <cc:Work
         rdf:about="">
        <dc:format>image/svg+xml</dc:format>
        <dc:type
           rdf:resource="http://purl.org/dc/dcmitype/StillImage" />
        <dc:title>Configuration Mania Icon</dc:title>
        <cc:license
           rdf:resource="http://creativecommons.org/licenses/by-sa/3.0/" />
        <dc:date>2015-08-30</dc:date>
        <dc:creator>
          <cc:Agent>
            <dc:title>@cat_in_136</dc:title>
          </cc:Agent>
        </dc:creator>
        <dc:contributor>
          <cc:Agent>
            <dc:title>Gear shape is based on the gnome-icon emblem-system-sybolic.svg (licensed under CC BY-SA).</dc:title>
          </cc:Agent>
        </dc:contributor>
      </cc:Work>
      <cc:License
         rdf:about="http://creativecommons.org/licenses/by-sa/3.0/">
        <cc:permits
           rdf:resource="http://creativecommons.org/ns#Reproduction" />
        <cc:permits
           rdf:resource="http://creativecommons.org/ns#Distribution" />
        <cc:requires
           rdf:resource="http://creativecommons.org/ns#Notice" />
        <cc:requires
           rdf:resource="http://creativecommons.org/ns#Attribution" />
        <cc:permits
           rdf:resource="http://creativecommons.org/ns#DerivativeWorks" />
        <cc:requires
           rdf:resource="http://creativecommons.org/ns#ShareAlike" />
      </cc:License>
    </rdf:RDF>
  </metadata>
  <path
     d="m 10.5,12 c -0.307696,0 -0.6155855,0.01402 -0.9160156,0.04102 l -0.5664063,2.841796 c -0.4664028,0.099 -0.9233121,0.238429 -1.3496093,0.423829 L 5.53125,13.314453 c -0.5419427,0.3123 -1.0125458,0.698516 -1.4804688,1.103516 l 1.2636719,2.585937 c -0.3101636,0.3379 -0.5917579,0.709916 -0.828125,1.103516 L 1.5664062,17.724609 C 1.3185765,18.279409 1.1360052,18.861044 1,19.464844 l 2.5703125,1.355468 C 3.5464665,21.048413 3.5273438,21.2657 3.5273438,21.5 c 0,0.2342 0.019263,0.449534 0.042969,0.677734 L 1,23.535156 c 0.1359633,0.6038 0.3185765,1.183481 0.5664062,1.738282 l 2.9199219,-0.38086 c 0.2363671,0.3935 0.5179614,0.765516 0.828125,1.103516 l -1.2636719,2.585937 c 0.467923,0.405 0.9385261,0.791216 1.4804688,1.103516 l 2.1367188,-1.994141 c 0.4262972,0.1854 0.8832065,0.324328 1.3496093,0.423828 l 0.5664063,2.841797 C 9.8844145,30.984031 10.192304,31 10.5,31 c 0.307695,0 0.615586,-0.01597 0.916016,-0.04297 l 0.566406,-2.841797 c 0.466403,-0.1 0.923312,-0.238428 1.349609,-0.423828 l 2.136719,1.994141 c 0.541942,-0.3123 1.012546,-0.698516 1.480469,-1.103516 l -1.263672,-2.585937 c 0.310163,-0.338 0.591758,-0.710016 0.828125,-1.103516 l 2.919922,0.38086 C 19.681424,24.718637 19.863995,24.138956 20,23.535156 l -2.570312,-1.357422 c 0.02385,-0.2282 0.04297,-0.443534 0.04297,-0.677734 0,-0.2343 -0.01926,-0.451587 -0.04297,-0.679688 L 20,19.464844 c -0.135963,-0.6038 -0.318576,-1.185435 -0.566406,-1.740235 l -2.919922,0.382813 c -0.236367,-0.3936 -0.517962,-0.765616 -0.828125,-1.103516 l 1.263672,-2.585937 c -0.467923,-0.405 -0.938527,-0.791216 -1.480469,-1.103516 l -2.136719,1.992188 c -0.426297,-0.1854 -0.883206,-0.324328 -1.349609,-0.423829 L 11.416016,12.041016 C 11.115586,12.014016 10.807695,12 10.5,12 Z m 0,7 A 2.5000004,2.5000004 0 0 1 13,21.5 2.5000004,2.5000004 0 0 1 10.5,24 2.5000004,2.5000004 0 0 1 8,21.5 2.5000004,2.5000004 0 0 1 10.5,19 Z"
     style="fill:#737373" />
  <path
     d="m 22,1 c -0.291501,0 -0.582569,0.013062 -0.867188,0.039063 l -0.537109,2.6933594 c -0.441855,0.094 -0.875437,0.2247906 -1.279297,0.4003906 L 17.292969,2.2460938 c -0.513419,0.2959 -0.959048,0.6592687 -1.402344,1.0429687 l 1.197266,2.4511719 c -0.293839,0.3201 -0.56123,0.6720218 -0.785157,1.0449218 L 13.537109,6.4238281 C 13.302323,6.9494282 13.128847,7.5002656 13,8.0722656 l 2.435547,1.2851563 C 15.412957,9.5735219 15.394531,9.778 15.394531,10 c 0,0.2219 0.01856,0.426478 0.04102,0.642578 L 13,11.927734 c 0.128808,0.572 0.302323,1.122838 0.537109,1.648438 l 2.765625,-0.361328 c 0.223927,0.3728 0.491318,0.724822 0.785157,1.044922 l -1.197266,2.449218 c 0.443296,0.3837 0.888925,0.749022 1.402344,1.044922 l 2.023437,-1.888672 c 0.40386,0.1756 0.837442,0.308044 1.279297,0.402344 l 0.537109,2.691406 C 21.417431,18.984984 21.708499,19 22,19 c 0.291501,0 0.582569,-0.01602 0.867188,-0.04102 l 0.537109,-2.691406 c 0.441856,-0.094 0.875436,-0.226744 1.279297,-0.402344 l 2.023437,1.888672 c 0.51342,-0.2959 0.959048,-0.661222 1.402344,-1.044922 l -1.197266,-2.449218 c 0.293839,-0.3201 0.56123,-0.672122 0.785157,-1.044922 l 2.765625,0.361328 C 30.697677,13.050572 30.871153,12.499734 31,11.927734 l -2.435547,-1.285156 c 0.02259,-0.2161 0.04102,-0.420678 0.04102,-0.642578 0,-0.222 -0.01856,-0.4264781 -0.04102,-0.6425781 L 31,8.0722656 c -0.128807,-0.572 -0.302323,-1.1228374 -0.537109,-1.6484375 L 27.697266,6.7851562 C 27.473339,6.4122562 27.205948,6.0603344 26.912109,5.7402344 L 28.109375,3.2890625 C 27.666079,2.9053625 27.220451,2.5419938 26.707031,2.2460938 L 24.683594,4.1328125 C 24.279733,3.9572125 23.846153,3.8267219 23.404297,3.7324219 L 22.867188,1.0390625 C 22.582569,1.0130625 22.291501,1 22,1 Z m 0,6.5 A 2.5000004,2.5000004 0 0 1 24.5,10 2.5000004,2.5000004 0 0 1 22,12.5 2.5000004,2.5000004 0 0 1 19.5,10 2.5000004,2.5000004 0 0 1 22,7.5 Z"
     style="fill:#737373" />
</svg>
