<?xml version="1.0" encoding="UTF-8" standalone="no"?>
<svg
   xmlns:dc="http://purl.org/dc/elements/1.1/"
   xmlns:cc="http://creativecommons.org/ns#"
   xmlns:rdf="http://www.w3.org/1999/02/22-rdf-syntax-ns#"
   xmlns:svg="http://www.w3.org/2000/svg"
   xmlns="http://www.w3.org/2000/svg"
   version="1.1"
   viewBox="0 0 32 32"
   height="32"
   width="32">
  <title>Configuration Mania Icon</title>
  <metadata>
    <rdf:RDF>
      <cc:Work
         rdf:about="">
        <dc:format>image/svg+xml</dc:format>
        <dc:type
           rdf:resource="http://purl.org/dc/dcmitype/StillImage" />
        <dc:title>Configuration Mania Icon</dc:title>
        <cc:license
           rdf:resource="http://creativecommons.org/licenses/by-sa/3.0/" />
        <dc:date>2015-08-30</dc:date>
        <dc:creator>
          <cc:Agent>
            <dc:title>@cat_in_136</dc:title>
          </cc:Agent>
        </dc:creator>
        <dc:contributor>
          <cc:Agent>
            <dc:title>Gear shape is based on the gnome-icon emblem-system-sybolic.svg (licensed under CC BY-SA).</dc:title>
          </cc:Agent>
        </dc:contributor>
      </cc:Work>
      <cc:License
         rdf:about="http://creativecommons.org/licenses/by-sa/3.0/">
        <cc:permits
           rdf:resource="http://creativecommons.org/ns#Reproduction" />
        <cc:permits
           rdf:resource="http://creativecommons.org/ns#Distribution" />
        <cc:requires
           rdf:resource="http://creativecommons.org/ns#Notice" />
        <cc:requires
           rdf:resource="http://creativecommons.org/ns#Attribution" />
        <cc:permits
           rdf:resource="http://creativecommons.org/ns#DerivativeWorks" />
        <cc:requires
           rdf:resource="http://creativecommons.org/ns#ShareAlike" />
      </cc:License>
    </rdf:RDF>
  </metadata>
  <path
     style="fill:#ffffff;stroke:#737373;stroke-width:1px"
     d="m 10.500036,12.635494 c -0.289176,0 -0.5785313,0.01318 -0.8608779,0.03857 l -0.5323127,2.671961 c -0.4383289,0.09308 -0.8677356,0.224181 -1.2683729,0.398499 L 5.8303684,13.871391 C 5.3210466,14.165027 4.8787703,14.528163 4.439013,14.908958 l 1.1876081,2.431395 C 5.335127,17.658059 5.0704826,18.007842 4.848343,18.37792 L 2.1041788,18.017983 c -0.2329122,0.521646 -0.404494,1.068519 -0.5323127,1.636235 l 2.4155987,1.274463 c -0.022411,0.214468 -0.040382,0.41877 -0.040382,0.639066 0,0.220205 0.018104,0.422669 0.040382,0.637232 l -2.4155987,1.276299 c 0.1277793,0.567715 0.2994005,1.112753 0.5323127,1.634397 L 4.848343,24.757576 c 0.2221396,0.369984 0.486784,0.719767 0.7782781,1.037567 L 4.439013,28.226538 c 0.4397573,0.380796 0.8820336,0.743931 1.3913554,1.037567 l 2.0081041,-1.874966 c 0.4006373,0.17432 0.830044,0.304945 1.2683729,0.398498 l 0.5323127,2.671964 c 0.2823466,0.02539 0.5717019,0.0404 0.8608779,0.0404 0.289173,0 0.578532,-0.01501 0.860878,-0.0404 l 0.532313,-2.671964 c 0.43833,-0.09402 0.867735,-0.224178 1.268373,-0.398498 l 2.008105,1.874966 c 0.509321,-0.293636 0.951597,-0.656771 1.391355,-1.037567 L 15.373451,25.79514 c 0.291495,-0.317799 0.556139,-0.667582 0.778279,-1.037566 l 2.744164,0.358099 c 0.232913,-0.521643 0.404494,-1.066681 0.532312,-1.634396 l -2.415598,-1.276299 c 0.02241,-0.214563 0.04038,-0.417027 0.04038,-0.637232 0,-0.220296 -0.0181,-0.424598 -0.04038,-0.639067 l 2.415598,-1.274462 C 19.300427,19.086498 19.128807,18.539625 18.895894,18.017979 L 16.15173,18.377916 C 15.92959,18.007837 15.664946,17.658054 15.373451,17.340349 L 16.56106,14.908953 C 16.121302,14.52816 15.679026,14.165024 15.169705,13.871388 l -2.008105,1.87313 c -0.400638,-0.17432 -0.830043,-0.304945 -1.268373,-0.3985 l -0.532313,-2.671963 c -0.282346,-0.02539 -0.571705,-0.03856 -0.860878,-0.03856 z m 0,6.58166 a 2.3495189,2.3505937 0 0 1 2.349518,2.350593 2.3495189,2.3505937 0 0 1 -2.349518,2.350594 2.3495189,2.3505937 0 0 1 -2.349518,-2.350594 2.3495189,2.3505937 0 0 1 2.349518,-2.350593 z" />
  <path
     style="fill:#ffffff;stroke:#737373;stroke-width:1px"
     d="m 22.000027,1.5000387 c -0.272981,0 -0.545557,0.012239 -0.812092,0.036599 L 20.684951,4.06016 C 20.27117,4.148233 19.865136,4.270776 19.486934,4.435303 L 17.592058,2.6675564 c -0.4808,0.2772412 -0.898115,0.6176966 -1.313246,0.9772014 l 1.121197,2.2966067 C 17.124838,6.2412798 16.874436,6.5710103 16.664736,6.920396 L 14.074825,6.5818525 c -0.219867,0.4924569 -0.382322,1.0085597 -0.502983,1.5444907 l 2.280804,1.2041176 c -0.02116,0.2024724 -0.03841,0.3940563 -0.03841,0.6020584 0,0.2079078 0.01738,0.3995848 0.03841,0.6020588 l -2.280804,1.204116 c 0.120624,0.535932 0.283116,1.052035 0.502983,1.544492 l 2.589911,-0.338543 c 0.2097,0.349291 0.460102,0.679116 0.735273,0.979031 l -1.121197,2.294776 c 0.415131,0.359505 0.832446,0.70179 1.313246,0.979032 l 1.894876,-1.769577 c 0.378202,0.164526 0.784236,0.288619 1.198017,0.376973 l 0.502984,2.521692 c 0.266535,0.02436 0.539111,0.03843 0.812092,0.03843 0.27298,0 0.545555,-0.01501 0.812091,-0.03843 l 0.502983,-2.521692 c 0.413783,-0.08807 0.819815,-0.212447 1.198017,-0.376973 l 1.894877,1.769577 c 0.480801,-0.277242 0.898115,-0.619527 1.313247,-0.979032 l -1.121197,-2.294776 c 0.27517,-0.299915 0.525571,-0.62974 0.735272,-0.979032 l 2.58991,0.338544 c 0.21987,-0.492453 0.382323,-1.008556 0.502984,-1.544489 l -2.280805,-1.204115 c 0.02116,-0.202474 0.03841,-0.394151 0.03841,-0.6020587 0,-0.2080021 -0.01737,-0.399586 -0.03841,-0.6020594 l 2.280805,-1.204116 C 30.307588,7.5904122 30.145097,7.0743094 29.925227,6.5818525 L 27.335317,6.920396 C 27.125616,6.5710103 26.875215,6.2412798 26.600045,5.9413647 L 27.721242,3.644758 C 27.30611,3.2852532 26.888796,2.9447978 26.407995,2.6675566 L 24.513118,4.435303 C 24.134916,4.270776 23.728884,4.1485139 23.315101,4.0601602 L 22.812118,1.5366379 c -0.266536,-0.02436 -0.539111,-0.036599 -0.812091,-0.036599 z m 0,6.0901247 a 2.3411628,2.342356 0 0 1 2.341161,2.3423558 2.3411628,2.342356 0 0 1 -2.341161,2.3423558 2.3411628,2.342356 0 0 1 -2.341163,-2.3423558 2.3411628,2.342356 0 0 1 2.341163,-2.3423558 z" />
</svg>
